<?xml version="1.0" encoding="utf-8"?>
<!-- Generator: Adobe Illustrator 16.0.0, SVG Export Plug-In . SVG Version: 6.00 Build 0)  -->
<!DOCTYPE svg PUBLIC "-//W3C//DTD SVG 1.1//EN" "http://www.w3.org/Graphics/SVG/1.1/DTD/svg11.dtd">
<svg version="1.1" id="Layer_1" xmlns="http://www.w3.org/2000/svg" xmlns:xlink="http://www.w3.org/1999/xlink" x="0px" y="0px"
	 width="355.057px" height="108.988px" viewBox="0 0 355.057 108.988" enable-background="new 0 0 355.057 108.988"
	 xml:space="preserve">
<g>
	<path fill="#FFFFFF" d="M188.839,72.709c-0.582-0.551-1.317-0.918-2.208-1.108c-0.665-0.155-1.966-0.228-3.911-0.228h-2.137v15.621
		h3.553c1.33,0,2.292-0.068,2.886-0.223c0.77-0.192,1.412-0.519,1.923-0.979s0.923-1.225,1.247-2.278
		c0.317-1.056,0.482-2.5,0.482-4.323c0-1.825-0.165-3.219-0.482-4.197C189.867,74.016,189.417,73.252,188.839,72.709z"/>
	<polygon fill="#FFFFFF" points="259.692,81.641 266.13,81.641 262.879,72.884 	"/>
	<path fill="#FFFFFF" d="M330.527,9.947H22.702c-7.373,0-13.406,6.032-13.406,13.406v62.062c0,7.374,6.033,13.404,13.406,13.404
		h307.825c7.373,0,13.405-6.03,13.405-13.404V23.353C343.932,15.979,337.9,9.947,330.527,9.947z M15.214,50.506V23.304
		c0-5.356,4.402-9.738,9.782-9.738h303.238c5.379,0,9.781,4.382,9.781,9.738v27.201c0,5.356-4.402,9.739-9.781,9.739H24.996
		C19.616,60.245,15.214,55.862,15.214,50.506z M75.024,90.974l-2.061-5.361h-9.433l-1.945,5.361h-5.053l9.191-23.596h5.037
		l9.448,23.596H75.024z M91.657,90.974H86.89h-0.001h0.001V71.373h-6.999v-3.994h18.748v3.994h-6.982V90.974z M116.65,90.974
		l-2.061-5.361h-9.432l-1.944,5.361H98.16l9.19-23.596h5.037l9.448,23.596H116.65z M141.832,89.502
		c-1.643,1.246-3.737,1.873-6.268,1.873c-3.132,0-5.708-1.07-7.724-3.209c-2.018-2.142-3.028-5.069-3.028-8.776
		c0-3.93,1.018-6.979,3.044-9.152c2.027-2.171,4.69-3.259,7.999-3.259c2.883,0,5.229,0.853,7.03,2.562
		c1.078,1.004,1.88,2.455,2.419,4.346l-4.72,1.125c-0.274-1.225-0.856-2.19-1.748-2.899c-0.884-0.71-1.96-1.062-3.224-1.062
		c-1.747,0-3.17,0.627-4.258,1.886c-1.088,1.253-1.632,3.284-1.632,6.097c0,2.983,0.532,5.109,1.608,6.372
		c1.072,1.27,2.467,1.901,4.183,1.901c1.268,0,2.355-0.401,3.268-1.208c0.912-0.805,1.565-2.074,1.967-3.798l4.614,1.46
		C144.654,86.338,143.48,88.249,141.832,89.502z M166.834,90.974l-2.06-5.361h-9.433l-1.943,5.361h-5.056l9.191-23.596h5.038
		l9.449,23.596H166.834z M194.872,84.425c-0.589,1.714-1.429,3.104-2.526,4.164c-0.825,0.809-1.938,1.435-3.346,1.886
		c-1.049,0.334-2.456,0.499-4.22,0.499h-8.959V67.379h-0.001h0.001h8.706c1.962,0,3.455,0.149,4.488,0.451
		c1.385,0.407,2.571,1.131,3.555,2.176c0.988,1.037,1.742,2.312,2.258,3.817c0.51,1.511,0.769,3.367,0.769,5.581
		C195.596,81.342,195.356,83.02,194.872,84.425z M205.545,90.974h-4.764V67.379h4.764V90.974z M228.222,87.898
		c-0.755,1.182-1.813,2.062-3.188,2.633c-1.372,0.576-3.087,0.861-5.135,0.861c-2.983,0-5.274-0.687-6.873-2.064
		s-2.553-3.392-2.86-6.028l4.639-0.456c0.272,1.56,0.84,2.703,1.696,3.435c0.852,0.725,1.998,1.092,3.449,1.092
		c1.532,0,2.691-0.323,3.467-0.977c0.779-0.649,1.17-1.406,1.17-2.275c0-0.561-0.166-1.032-0.494-1.422
		c-0.323-0.396-0.896-0.736-1.714-1.021c-0.556-0.198-1.83-0.539-3.812-1.032c-2.558-0.633-4.347-1.412-5.375-2.334
		c-1.449-1.298-2.175-2.879-2.175-4.748c0-1.202,0.341-2.322,1.021-3.372c0.683-1.044,1.664-1.84,2.944-2.391
		c1.284-0.543,2.829-0.818,4.642-0.818c2.967,0,5.191,0.647,6.69,1.945c1.495,1.303,2.279,3.032,2.357,5.201l-4.764,0.209
		c-0.203-1.213-0.643-2.087-1.312-2.614c-0.672-0.533-1.677-0.796-3.018-0.796c-1.384,0-2.472,0.279-3.251,0.853
		c-0.506,0.361-0.76,0.85-0.76,1.459c0,0.561,0.236,1.039,0.709,1.436c0.599,0.504,2.061,1.032,4.379,1.574
		c2.318,0.551,4.032,1.116,5.141,1.698c1.111,0.589,1.979,1.386,2.61,2.4c0.626,1.017,0.94,2.271,0.94,3.757
		C229.349,85.454,228.974,86.723,228.222,87.898z M244.726,90.974h-4.771V71.373h-6.997v-3.994h18.749v3.994h-6.98V90.974z
		 M269.719,90.974l-2.06-5.361h-9.432l-1.944,5.361h-5.054l9.188-23.596h5.038l9.449,23.596H269.719z M295.566,87.898
		c-0.752,1.182-1.812,2.062-3.188,2.633c-1.371,0.576-3.087,0.861-5.135,0.861c-2.982,0-5.273-0.687-6.873-2.064
		s-2.552-3.392-2.859-6.028l4.638-0.456c0.274,1.56,0.841,2.703,1.696,3.435c0.853,0.725,1.998,1.092,3.449,1.092
		c1.533,0,2.691-0.323,3.467-0.977c0.78-0.649,1.17-1.406,1.17-2.275c0-0.561-0.164-1.032-0.493-1.422
		c-0.324-0.396-0.896-0.736-1.714-1.021c-0.557-0.198-1.829-0.539-3.812-1.032c-2.556-0.633-4.345-1.412-5.374-2.334
		c-1.449-1.298-2.174-2.879-2.174-4.748c0-1.202,0.34-2.322,1.021-3.372c0.682-1.044,1.664-1.84,2.945-2.391
		c1.284-0.543,2.828-0.818,4.641-0.818c2.968,0,5.191,0.647,6.69,1.945c1.495,1.303,2.281,3.032,2.357,5.201l-4.764,0.209
		c-0.202-1.213-0.643-2.087-1.312-2.614c-0.669-0.533-1.675-0.796-3.016-0.796c-1.385,0-2.473,0.279-3.253,0.853
		c-0.506,0.361-0.759,0.85-0.759,1.459c0,0.561,0.236,1.039,0.709,1.436c0.601,0.504,2.062,1.032,4.379,1.574
		c2.318,0.551,4.032,1.116,5.143,1.698c1.109,0.589,1.978,1.386,2.609,2.4c0.625,1.017,0.938,2.271,0.938,3.757
		C296.692,85.454,296.318,86.723,295.566,87.898z M331.904,92.718c-3.914,0-7.099-3.186-7.099-7.101
		c0-3.914,3.185-7.099,7.099-7.099s7.098,3.185,7.098,7.099C339.001,89.532,335.818,92.718,331.904,92.718z"/>
	<polygon fill="#FFFFFF" points="156.809,81.641 163.248,81.641 159.996,72.884 	"/>
	<polygon fill="#FFFFFF" points="106.625,81.641 113.063,81.641 109.812,72.884 	"/>
	<path fill="#FFFFFF" d="M331.904,79.154c-3.564,0-6.463,2.897-6.463,6.463s2.897,6.465,6.463,6.465
		c3.562,0,6.463-2.899,6.463-6.465S335.467,79.154,331.904,79.154z M333.08,89.752l-1.365-2.525
		c-0.172-0.325-0.325-0.539-0.463-0.638c-0.184-0.127-0.393-0.189-0.625-0.189h-0.225v3.354h-2.563V89.75v-8.264h4.255
		c0.788,0,1.395,0.068,1.809,0.203c0.419,0.137,0.756,0.385,1.011,0.754c0.256,0.365,0.383,0.812,0.383,1.336
		c0,0.461-0.098,0.854-0.292,1.188c-0.195,0.333-0.465,0.603-0.806,0.812c-0.22,0.13-0.519,0.24-0.896,0.326
		c0.304,0.101,0.524,0.203,0.664,0.305c0.094,0.067,0.229,0.212,0.408,0.433c0.179,0.224,0.298,0.395,0.358,0.515l1.234,2.396
		H333.08z"/>
	<polygon fill="#FFFFFF" points="65,81.641 71.438,81.641 68.187,72.884 	"/>
	<path fill="#FFFFFF" d="M331.525,83.155h-1.121v1.68h1.078c0.115,0,0.34-0.037,0.674-0.111c0.17-0.035,0.309-0.121,0.415-0.26
		c0.105-0.14,0.16-0.3,0.16-0.479c0-0.269-0.084-0.471-0.254-0.615C332.308,83.227,331.991,83.155,331.525,83.155z"/>
	<path fill="#FFFFFF" d="M192.548,20.504c-1.271-0.314-3.396-0.477-6.368-0.477h-13.337l-0.255,0.929
		c1.648,0.067,2.709,0.29,3.202,0.671c0.493,0.382,0.73,0.858,0.73,1.443c0,0.713-0.306,2.123-0.917,4.229l-6.022,20.751
		c-0.484,1.657-0.9,2.752-1.258,3.271c-0.356,0.526-0.831,0.909-1.418,1.163c-0.586,0.247-1.563,0.374-2.921,0.374l-0.324,0.917
		h14.029c5.259,0,8.877-0.383,10.847-1.155c1.981-0.772,3.562-1.996,4.758-3.661c1.197-1.666,1.791-3.355,1.791-5.062
		c0-1.827-0.601-3.424-1.815-4.81c-1.214-1.376-3.373-2.497-6.498-3.38c3.007-0.68,5.232-1.418,6.686-2.227
		c1.454-0.808,2.54-1.826,3.271-3.075c0.73-1.24,1.097-2.462,1.097-3.659c0-1.462-0.459-2.762-1.378-3.917
		C195.523,21.676,194.222,20.901,192.548,20.504z M187.325,42.129c0,2.353-0.723,4.569-2.167,6.635
		c-1.443,2.062-4.019,3.09-7.713,3.09c-0.415,0-1.035-0.018-1.868-0.042l4.307-15.01c2.091,0,3.576,0.172,4.449,0.511
		c0.885,0.34,1.599,0.942,2.158,1.816C187.044,39.995,187.325,41,187.325,42.129z M188.957,30.517
		c-0.79,1.554-1.834,2.666-3.135,3.346c-1.307,0.681-3.084,1.036-5.343,1.071l3.806-13.091l1.376-0.052
		c1.359-0.033,2.446,0.358,3.253,1.173c0.815,0.815,1.224,1.869,1.224,3.16C190.137,27.5,189.737,28.971,188.957,30.517z"/>
	<path fill="#FFFFFF" d="M314.582,49.491c0-0.297,0.025-1.172,0.076-2.615l1.122-27.615h-1.122l-23.919,28.541
		c-1.741,2.073-3.075,3.44-4,4.104c-0.699,0.483-1.497,0.798-2.396,0.951l-0.247,0.917h10.082v-0.917
		c-0.984-0.051-1.682-0.246-2.106-0.586s-0.637-0.714-0.637-1.113c0-0.382,0.085-0.757,0.254-1.138
		c0.214-0.501,0.553-1.054,1.021-1.675l2.388-2.861l2.09-2.582h10.455l-0.229,4.305c-0.076,1.818-0.313,3.102-0.696,3.839
		c-0.383,0.739-0.798,1.224-1.267,1.461c-0.22,0.095-1.045,0.212-2.488,0.349l-0.271,0.917h14.601l0.255-0.917
		c-1.06-0.084-1.825-0.382-2.275-0.9C314.811,51.445,314.582,50.62,314.582,49.491z M307.642,40.854h-8.741l9.387-10.991
		L307.642,40.854z"/>
	<path fill="#FFFFFF" d="M39.784,20.027l-2.667,9.091h0.977c1.443-2.438,3.032-4.188,4.774-5.233
		c1.741-1.045,3.907-1.605,6.497-1.69L41.848,47.6c-0.646,2.226-1.358,3.662-2.141,4.298s-2.021,0.959-3.728,0.959l-0.297,0.917
		h16.738l0.229-0.917c-1.579-0.033-2.624-0.237-3.144-0.611c-0.51-0.374-0.765-0.876-0.765-1.503c0-0.688,0.204-1.734,0.62-3.144
		l7.519-25.406c2.403,0.135,4.111,0.679,5.122,1.631s1.521,2.293,1.521,4.018c0,0.364-0.017,0.79-0.052,1.274h0.894l2.564-9.089
		H39.784z"/>
	<path fill="#FFFFFF" d="M132.839,43.224l-2.479-23.197v-0.003h-12.045l-0.306,0.926c1.316,0,2.25,0.109,2.803,0.348
		c0.552,0.229,1.181,0.731,1.878,1.496l-7.289,24.93c-0.569,1.928-1.479,3.354-2.734,4.28c-0.715,0.519-1.75,0.798-3.093,0.85
		l-0.22,0.917h11.144l0.254-0.917c-1.374-0.052-2.351-0.33-2.93-0.84c-0.567-0.501-0.857-1.175-0.857-1.996
		c0-0.619,0.138-1.376,0.399-2.293l6.447-22.424l3.032,28.472h1.027l19.308-27.92l-6.346,21.873
		c-0.595,2.038-1.325,3.405-2.191,4.094c-0.857,0.688-2.2,1.036-4.009,1.036l-0.297,0.917h16.854l0.22-0.917
		c-1.461-0.033-2.439-0.237-2.939-0.611c-0.492-0.374-0.746-0.867-0.746-1.487c0-0.663,0.202-1.674,0.602-3.031l6.217-21.601
		c0.595-2.055,1.318-3.432,2.167-4.129c0.849-0.695,2.08-1.043,3.711-1.043l0.298-0.926h-11.823L132.839,43.224z"/>
	<path fill="#FFFFFF" d="M235.108,49.491c0-0.297,0.024-1.172,0.076-2.615l1.121-27.615h-1.121l-23.921,28.541
		c-1.74,2.073-3.073,3.44-3.998,4.104c-0.697,0.483-1.496,0.798-2.396,0.951l-0.246,0.917h10.082v-0.917
		c-0.986-0.051-1.682-0.247-2.105-0.586c-0.426-0.34-0.638-0.714-0.638-1.113c0-0.382,0.085-0.757,0.255-1.138
		c0.212-0.501,0.553-1.054,1.019-1.675l2.389-2.861l2.09-2.582h10.456l-0.231,4.305c-0.076,1.818-0.315,3.102-0.697,3.839
		c-0.382,0.739-0.799,1.224-1.266,1.461c-0.221,0.095-1.043,0.212-2.488,0.349l-0.272,0.917h14.602l0.256-0.917
		c-1.062-0.084-1.825-0.382-2.276-0.9C235.337,51.445,235.108,50.62,235.108,49.491z M228.17,40.854h-8.74l9.385-10.991
		L228.17,40.854z"/>
	<path fill="#FFFFFF" d="M96.106,49.492c0-0.297,0.023-1.172,0.075-2.615l1.12-27.614h-1.12l-23.918,28.54
		c-1.741,2.072-3.075,3.439-4,4.104c-0.696,0.483-1.495,0.798-2.396,0.951l-0.247,0.917h10.082v-0.917
		c-0.985-0.051-1.681-0.247-2.104-0.586c-0.427-0.339-0.639-0.714-0.639-1.113c0-0.381,0.085-0.756,0.255-1.138
		c0.212-0.501,0.554-1.054,1.019-1.674l2.388-2.862l2.09-2.582h10.454v-0.001v0.001l-0.229,4.305
		c-0.076,1.817-0.314,3.102-0.696,3.839c-0.381,0.74-0.799,1.225-1.266,1.461c-0.222,0.095-1.046,0.212-2.489,0.349l-0.271,0.917
		h14.601l0.255-0.917c-1.062-0.084-1.827-0.382-2.277-0.9C96.334,51.445,96.106,50.621,96.106,49.492z M89.165,40.854h-8.74
		l9.388-10.991L89.165,40.854z"/>
	<path fill="#FFFFFF" d="M277.37,20.494c-0.382,0.203-0.813,0.305-1.291,0.305c-0.569,0-1.536-0.187-2.914-0.568
		c-2.36-0.645-4.256-0.968-5.699-0.968c-3.185,0-5.765,0.908-7.737,2.733c-1.979,1.827-2.965,3.993-2.965,6.49
		c0,1.443,0.307,2.812,0.918,4.085c0.85,1.725,2.379,3.678,4.596,5.871c2.218,2.189,3.637,3.854,4.256,5.002
		c0.62,1.146,0.934,2.343,0.934,3.584c0,1.46-0.552,2.735-1.655,3.821c-1.104,1.088-2.473,1.632-4.119,1.632
		c-1.656,0-3.135-0.45-4.426-1.333c-1.3-0.893-2.293-2.125-2.989-3.713c-0.696-1.579-1.156-3.499-1.367-5.758h-0.944l-3.016,12.867
		h0.969c0.672-0.501,1.225-0.831,1.674-1.01c0.442-0.17,0.952-0.263,1.515-0.263c0.712,0,2.155,0.212,4.322,0.636
		c2.166,0.426,3.959,0.637,5.384,0.637c2.318,0,4.398-0.416,6.234-1.257s3.229-2.02,4.197-3.55c0.959-1.521,1.437-3.194,1.437-4.995
		c0-1.612-0.341-3.108-1.028-4.484c-0.689-1.376-2.039-3.017-4.044-4.927c-2.506-2.385-4.095-4.179-4.766-5.359
		c-0.672-1.188-1.011-2.395-1.011-3.626c0-1.241,0.484-2.353,1.461-3.347c0.967-0.985,2.101-1.479,3.39-1.479
		c1.35,0,2.6,0.425,3.746,1.274c1.155,0.84,2.079,2.048,2.775,3.601c0.468,1.079,0.792,2.515,0.97,4.307h0.823l2.812-11.44h-1.098
		C278.202,19.874,277.752,20.282,277.37,20.494z"/>
</g>
</svg>
